# xmcd CD database file
#
# Track frame offsets:
#	150
#	14407
#	27862
#	46433
#	58907
#	69809
#	83310
#	96953
#	111205
#	122652
#	141174
#	156236
#	171433
#	186941
#	200639
#	213525
#	226832
#	241696
#
# Disc length: 3401 seconds
#
# Revision: 0
# Processed by: cddbd v1.5.2PL0 Copyright (c) Steve Scherf et al.
# Submitted via: CDex 1.51
#
DISCID=f50d4712
DTITLE=Various Artist - The Best of Bandstand Volume 2 CD 2
DYEAR=2010
DGENRE=Jazz
TTITLE0=Mel Tormè - Manhattan
TTITLE1=Stanley Black and His Orchestra - Ebb Tide
TTITLE2=Judy Garland - The Man That Got Away
TTITLE3=Jimmy Durante - Yount at Heart
TTITLE4=Jo Stafford - Oh! Look at me Now
TTITLE5=Charlie Barnett and His Orchestra - Skyliner
TTITLE6=Alma Cogan - Somebody Loves Me
TTITLE7=Vic Damone - Crazy
TTITLE8=Julie London - Fly me to the Moon
TTITLE9=Dr. John Ft. Rickie Lee Jones - Makin' Whoopee
TTITLE10=The Tommy Dorsey Orchestra - Boogie Woogie
TTITLE11=Sammy Davis Jr. - What Kind of Fool am I?
TTITLE12=Natalie Cole - To Whom It May Concern
TTITLE13=Glen Gray and the Casa Loma Orchestra - Memories of You
TTITLE14=Billy Eckstine - I Apologise
TTITLE15=Ertha Kitt - C'est Si Bon (It's So Good)
TTITLE16=Lionel Hampton and His Orchestra - Midnight Sun
TTITLE17=Dame Vera Lynn - As Time Goes By
EXTD=YEAR: 2010
EXTT0=
EXTT1=
EXTT2=
EXTT3=
EXTT4=
EXTT5=
EXTT6=
EXTT7=
EXTT8=
EXTT9=
EXTT10=
EXTT11=
EXTT12=
EXTT13=
EXTT14=
EXTT15=
EXTT16=
EXTT17=
PLAYORDER=
